<svg data-v-0dd9719b="" version="1.0" xmlns="http://www.w3.org/2000/svg" xmlns:xlink="http://www.w3.org/1999/xlink" width="100%" height="100%" viewBox="0 0 340.000000 250.000000" preserveAspectRatio="xMidYMid meet" color-interpolation-filters="sRGB" style="margin: auto;"> <rect data-v-0dd9719b="" x="0" y="0" width="100%" height="100%" fill="#fff" fill-opacity="1" class="background"></rect> <rect data-v-0dd9719b="" x="0" y="0" width="100%" height="100%" fill="url(#watermark)" fill-opacity="1" class="watermarklayer"></rect> <g data-v-0dd9719b="" fill="#f08300" class="icon-text-wrapper icon-svg-group iconsvg" transform="translate(46.5,95)"><g class="iconsvg-imagesvg" transform="translate(0,0)"><g><rect fill="#f08300" fill-opacity="0" stroke-width="2" x="0" y="0" width="60" height="60" class="image-rect"></rect> <svg x="0" y="0" width="60" height="60" filtersec="colorsb2113217329" class="image-svg-svg primary" style="overflow: visible;"><svg xmlns="http://www.w3.org/2000/svg" viewBox="0 0 74.30999755859375 74.30999755859375"><g><g><g fill-rule="evenodd"><path d="M2.31 36.65L37.45 1.51l35.67 35.67c-32.28-12.62-35.45-13.47-70.81-.53z" fill="#f08300"></path><path d="M2.31 36.65c27.77-13.19 43.63-12.45 70.81.53L38 72.32 2.31 36.65z" fill="#863043"></path><path d="M2.31 36.65c27.77-13.19 43.63-12.45 70.81.53L38 72.32 2.31 36.65z" fill="#863043"></path><path d="M40.9.95c-15.3 30.57-9.18 51.86 0 70.83L39 74.31C28.34 55.12 22.2 32.72 38.19 0l2.71.95z" fill="#fff"></path><path d="M73.36 39.15C45.11 23.79 21.62 29 2.52 38.17L0 36.24c19.71-10.85 43-16.53 74.31.2l-1 2.71z" fill="#fff"></path></g></g></g></svg></svg> <!----></g></g> <g transform="translate(67,13.5)"><g data-gra="path-name" fill-rule="" class="tp-name iconsvg-namesvg"><g transform="scale(1)"><g><path d="M3.46-33L0 0 22.25 0 23.83-4.63 5.17-4.63 7.69-28.37 26.3-28.37 26.79-33 3.46-33ZM26.79 0L29.18-22.93 50.08-22.93 47.61 0 26.79 0ZM33.45-18.25L31.96-4.63 43.43-4.63 44.87-18.25 33.45-18.25ZM62.76-22.93L68.74-22.93 55.79-9.89 54.76 0 50.08 0 52.46-22.93 57.14-22.93 56.46-16.41 62.76-22.93ZM71.16-22.93L68.74 0 88.88 0 90.45-4.63 74-4.63 74.45-9.31 90.94-9.31 92.38-22.93 71.16-22.93ZM87.08-13.58L74.9-13.58 75.39-18.25 87.57-18.25 87.08-13.58ZM97.82-18.3L95.89 0 104.79 0 106.36-4.63 101.06-4.63 102.54-18.3 108.57-18.3 109.06-22.97 103.04-22.97 103.62-28.86 98.95-28.86 98.32-22.97 92.88-22.97 92.38-18.3 97.82-18.3ZM111.49-22.93L109.06 0 129.2 0 130.77-4.63 114.32-4.63 114.77-9.31 131.27-9.31 132.71-22.93 111.49-22.93ZM127.4-13.58L115.22-13.58 115.71-18.25 127.9-18.25 127.4-13.58ZM135.13-22.93L132.71 0 152.85 0 154.42-4.63 137.97-4.63 139.36-18.25 155.86-18.25 156.35-22.93 135.13-22.93ZM159.86-33L156.35 0 161.12 0 163.01-18.3 174.83-18.3 172.9 0 177.57 0 180-22.97 163.5-22.97 164.58-33 159.86-33Z" transform="translate(0, 33)"></path></g> <!----> <!----> <!----> <!----> <!----> <!----> <!----></g></g> <!----></g></g><defs v-gra="od"></defs></svg>